PathFileType	4	(X/Y/Z)	/Users/itak/Documents/Research/Walk-IL/dataset/trc/00520_00183.trc
DataRate	CameraRate	NumFrames	NumMarkers	Units	OrigDataRate	OrigDataStartFrame	OrigNumFrames
100.000000	100.000000	4	53	mm	100.000000	0	472
Frame#	Time	RPSI			LPSI			L3			STRN			T10			C7			CLAV			RBAK			LBAK			LSHO			LUPA			LAEL			LAOL			LWTS			LWPS			LFRA			LIFD			LHPS			LHTS			RSHO			RUPA			RAEL			RAOL			RWTS			RWPS			RFRA			RIFD			RHTS			RHPS			RBHD			LFHD			RFHD			LBHD			LHIP			RHIP			RASI			LASI			LKNE			LTHI			LANK			LTIP			LTOE			LMT1			LMT5			LHEE			RKNE			RTHI			RANK			RTIP			RTOE			RMT1			RMT5			RHEE			
		X1	Y1	Z1	X2	Y2	Z2	X3	Y3	Z3	X4	Y4	Z4	X5	Y5	Z5	X6	Y6	Z6	X7	Y7	Z7	X8	Y8	Z8	X9	Y9	Z9	X10	Y10	Z10	X11	Y11	Z11	X12	Y12	Z12	X13	Y13	Z13	X14	Y14	Z14	X15	Y15	Z15	X16	Y16	Z16	X17	Y17	Z17	X18	Y18	Z18	X19	Y19	Z19	X20	Y20	Z20	X21	Y21	Z21	X22	Y22	Z22	X23	Y23	Z23	X24	Y24	Z24	X25	Y25	Z25	X26	Y26	Z26	X27	Y27	Z27	X28	Y28	Z28	X29	Y29	Z29	X30	Y30	Z30	X31	Y31	Z31	X32	Y32	Z32	X33	Y33	Z33	X34	Y34	Z34	X35	Y35	Z35	X36	Y36	Z36	X37	Y37	Z37	X38	Y38	Z38	X39	Y39	Z39	X40	Y40	Z40	X41	Y41	Z41	X42	Y42	Z42	X43	Y43	Z43	X44	Y44	Z44	X45	Y45	Z45	X46	Y46	Z46	X47	Y47	Z47	X48	Y48	Z48	X49	Y49	Z49	X50	Y50	Z50	X51	Y51	Z51	X52	Y52	Z52	X53	Y53	Z53	

1	0	-1156.3486328125	969.136962890625	-412.9620971679688	-1130.580078125	968.742431640625	-533.9993896484375	-1159.348999023438	1026.773315429688	-478.0616455078125	-941.3235473632812	1201.192016601562	-452.201171875	-1175.69970703125	1133.415771484375	-476.4566040039062	-1132.908569335938	1364.013305664062	-471.4446105957031	-979.0781860351562	1295.768310546875	-458.3627014160156	-1185.6728515625	1242.052124023438	-389.0982971191406	-1148.99365234375	1306.8876953125	-558.3091430664062	-1053.281372070312	1358.898193359375	-624.9779052734375	-1065.902465820312	1233.382202148438	-684.107421875	-1062.615478515625	1025.136962890625	-713.9334716796875	-1126.340698242188	1015.177001953125	-637.3563842773438	-964.9171752929688	841.9055786132812	-691.0662841796875	-1046.9091796875	802.5618286132812	-718.3184814453125	-1043.977172851562	941.1171264648438	-719.7871704101562	-955.1530151367188	683.895751953125	-687.16845703125	-1019.816589355469	750.9676513671875	-719.064697265625	-955.9638061523438	764.4608764648438	-712.4930419921875	-1094.788940429688	1364.36669921875	-319.19775390625	-1117.180419921875	1297.51171875	-264.0533752441406	-1122.388305664062	1031.781494140625	-217.42041015625	-1162.269897460938	1011.664794921875	-266.25341796875	-1008.122131347656	835.1646728515625	-213.3041229248047	-1092.479614257812	807.5318603515625	-187.5494384765625	-1120.162475585938	977.5516357421875	-208.3827362060547	-1003.799255371094	674.9107055664062	-199.5391387939453	-998.5769653320312	744.0769653320312	-181.7437438964844	-1068.275024414062	738.9548950195312	-179.3855743408203	-1113.947998046875	1522.6416015625	-393.0930480957031	-962.2335815429688	1589.174560546875	-506.6960144042969	-990.7460327148438	1584.739379882812	-382.4208374023438	-1092.114990234375	1523.951416015625	-551.3785400390625	-1003.064880371094	891.5685424804688	-644.0642700195312	-1077.72412109375	867.9981079101562	-271.7720336914062	-966.4284057617188	909.96484375	-318.0736389160156	-924.2084350585938	923.0950317382812	-557.6060180664062	-1034.143310546875	472.766357421875	-612.0886840820312	-1002.070007324219	627.9107055664062	-627.470947265625	-1132.717529296875	47.05669403076172	-600.6701049804688	-1073.824096679688	330.4942626953125	-619.4012451171875	-938.3250122070312	38.91206741333008	-529.3912353515625	-1016.060302734375	45.13471603393555	-501.6514892578125	-1021.899230957031	42.44705581665039	-603.8304443359375	-1183.220092773438	43.97599792480469	-540.9378662109375	-1091.196899414062	481.8350524902344	-291.7516479492188	-1057.721801757812	740.730712890625	-262.2881469726562	-1143.167358398438	48.80595779418945	-326.1512756347656	-1093.459716796875	341.027099609375	-305.7680358886719	-940.4463500976562	43.62490844726562	-360.9774169921875	-1004.545532226562	49.89091491699219	-399.309814453125	-1030.09375	44.90627670288086	-306.5306701660156	-1192.764282226562	40.26409530639648	-376.6948547363281	
2	0.01	-1156.441162109375	969.124755859375	-412.9846801757812	-1130.632690429688	968.7418823242188	-534.0521240234375	-1159.390258789062	1026.798095703125	-478.0896606445312	-941.3223876953125	1201.2041015625	-452.2045288085938	-1175.73046875	1133.432861328125	-476.4730834960938	-1132.93017578125	1364.035888671875	-471.428466796875	-979.1070556640625	1295.78955078125	-458.3370361328125	-1185.695434570312	1242.056274414062	-389.0973510742188	-1149.020385742188	1306.930541992188	-558.3052978515625	-1053.302856445312	1358.94482421875	-624.9550170898438	-1065.919677734375	1233.434326171875	-684.1068725585938	-1062.589477539062	1025.17822265625	-713.9749145507812	-1126.341064453125	1015.229187011719	-637.4069213867188	-964.842041015625	841.985107421875	-691.0543212890625	-1046.880249023438	802.5955810546875	-718.3738403320312	-1043.908203125	941.2033081054688	-719.8167724609375	-955.1412963867188	683.934814453125	-687.1802978515625	-1019.753356933594	751.0106201171875	-719.079833984375	-955.9542236328125	764.5142822265625	-712.50146484375	-1094.805297851562	1364.355224609375	-319.1837158203125	-1117.220458984375	1297.476806640625	-264.0239868164062	-1122.478271484375	1031.761596679688	-217.4128570556641	-1162.331787109375	1011.673034667969	-266.2739562988281	-1008.321594238281	835.0779418945312	-213.332763671875	-1092.690307617188	807.4743041992188	-187.6172790527344	-1120.276611328125	977.530517578125	-208.4058532714844	-1004.143615722656	674.8016357421875	-199.6365509033203	-998.8788452148438	743.947998046875	-181.8171081542969	-1068.545532226562	738.8895263671875	-179.4848937988281	-1113.9541015625	1522.673706054688	-392.9688415527344	-962.2340698242188	1589.166748046875	-506.6536254882812	-990.655517578125	1584.748657226562	-382.37548828125	-1092.161499023438	1523.964721679688	-551.3033447265625	-1003.131591796875	891.5888671875	-644.097900390625	-1077.797607421875	867.9758911132812	-271.846435546875	-966.4988403320312	909.98876953125	-318.0859680175781	-924.2678833007812	923.1063842773438	-557.6337280273438	-1034.16162109375	472.772216796875	-612.1036376953125	-1002.135925292969	627.9130249023438	-627.5111694335938	-1132.722412109375	47.05930709838867	-600.6721801757812	-1073.839721679688	330.4933166503906	-619.412109375	-938.3255615234375	38.91207122802734	-529.3916625976562	-1016.064086914062	45.13086318969727	-501.6551513671875	-1021.897827148438	42.44741439819336	-603.8291015625	-1183.221923828125	43.9703483581543	-540.9370727539062	-1091.208618164062	481.8422546386719	-291.784423828125	-1057.77490234375	740.7405395507812	-262.3135375976562	-1143.16748046875	48.80932235717773	-326.148681640625	-1093.459228515625	341.0337829589844	-305.77099609375	-940.4436645507812	43.61724853515625	-360.9834899902344	-1004.531921386719	49.88826751708984	-399.3471984863281	-1030.098266601562	44.91207885742188	-306.5359802246094	-1192.763916015625	40.26528167724609	-376.7002563476562	
3	0.02	-1156.55322265625	969.1090698242188	-413.0152587890625	-1130.699340820312	968.7423706054688	-534.1148681640625	-1159.4423828125	1026.830444335938	-478.1270751953125	-941.3247680664062	1201.221435546875	-452.2095642089844	-1175.768188476562	1133.4541015625	-476.4925842285156	-1132.959228515625	1364.064575195312	-471.4068603515625	-979.144775390625	1295.818115234375	-458.3036193847656	-1185.72412109375	1242.06201171875	-389.0980834960938	-1149.057495117188	1306.984375	-558.2987670898438	-1053.330932617188	1359.006958007812	-624.9243774414062	-1065.942749023438	1233.50390625	-684.1047973632812	-1062.546020507812	1025.233520507812	-714.0239868164062	-1126.341552734375	1015.294311523438	-637.4669189453125	-964.7601318359375	842.0765380859375	-691.0391235351562	-1046.836303710938	802.6380004882812	-718.442138671875	-1043.833618164062	941.3095092773438	-719.8526611328125	-955.1343994140625	683.9818725585938	-687.192626953125	-1019.681091308594	751.05908203125	-719.1017456054688	-955.9452514648438	764.5822143554688	-712.5087890625	-1094.826293945312	1364.341552734375	-319.1676025390625	-1117.27099609375	1297.43603515625	-263.9873962402344	-1122.583740234375	1031.736328125	-217.4111480712891	-1162.4052734375	1011.681640625	-266.2988891601562	-1008.575988769531	834.9630126953125	-213.3622741699219	-1092.948852539062	807.401123046875	-187.7078399658203	-1120.408325195312	977.5034790039062	-208.4351501464844	-1004.569702148438	674.6612548828125	-199.7597045898438	-999.246826171875	743.7892456054688	-181.9111633300781	-1068.880493164062	738.8036499023438	-179.6159057617188	-1113.957763671875	1522.713012695312	-392.8173522949219	-962.2376098632812	1589.156860351562	-506.5989685058594	-990.55078125	1584.754272460938	-382.3165893554688	-1092.220336914062	1523.98291015625	-551.2099609375	-1003.214965820312	891.6173706054688	-644.1419677734375	-1077.901977539062	867.9512939453125	-271.9461669921875	-966.5881958007812	910.0173950195312	-318.1087036132812	-924.3331909179688	923.1212158203125	-557.6668090820312	-1034.18359375	472.7797546386719	-612.1212158203125	-1002.225646972656	627.9108276367188	-627.5629272460938	-1132.728149414062	47.0619010925293	-600.673828125	-1073.859008789062	330.4921264648438	-619.425537109375	-938.326171875	38.91218566894531	-529.3921508789062	-1016.069763183594	45.12730407714844	-501.6595764160156	-1021.898010253906	42.44663238525391	-603.82958984375	-1183.223999023438	43.96376419067383	-540.9365844726562	-1091.222900390625	481.8511047363281	-291.8219909667969	-1057.845092773438	740.7520751953125	-262.3475341796875	-1143.166870117188	48.8131217956543	-326.147705078125	-1093.462890625	341.0398559570312	-305.7849731445312	-940.4395751953125	43.61017227172852	-360.9903869628906	-1004.52978515625	49.877197265625	-399.3924255371094	-1030.102783203125	44.91777420043945	-306.541259765625	-1192.763549804688	40.26530838012695	-376.7063903808594	
4	0.03	-1156.677124023438	969.0905151367188	-413.0549621582031	-1130.777709960938	968.744140625	-534.1835327148438	-1159.503173828125	1026.869262695312	-478.1729431152344	-941.3323364257812	1201.243896484375	-452.2162475585938	-1175.811157226562	1133.478393554688	-476.5137939453125	-1132.99560546875	1364.098266601562	-471.3799438476562	-979.1905517578125	1295.853881835938	-458.2634887695312	-1185.758422851562	1242.0693359375	-389.1011962890625	-1149.104736328125	1307.046752929688	-558.288818359375	-1053.36474609375	1359.08349609375	-624.8858032226562	-1065.970336914062	1233.58935546875	-684.1008911132812	-1062.487915039062	1025.30078125	-714.0771484375	-1126.342651367188	1015.369201660156	-637.5322265625	-964.678955078125	842.173095703125	-691.0206909179688	-1046.776977539062	802.6868896484375	-718.5202026367188	-1043.761840820312	941.4295654296875	-719.8922729492188	-955.1345825195312	684.0348510742188	-687.2030029296875	-1019.605590820312	751.1085815429688	-719.1315307617188	-955.9375610351562	764.6634521484375	-712.5135498046875	-1094.852172851562	1364.326171875	-319.149169921875	-1117.329223632812	1297.392456054688	-263.9452209472656	-1122.696655273438	1031.706176757812	-217.4188690185547	-1162.485107421875	1011.689331054688	-266.3279724121094	-1008.874755859375	834.8219604492188	-213.3886108398438	-1093.241577148438	807.3150634765625	-187.8202514648438	-1120.548095703125	977.4710083007812	-208.4695739746094	-1005.056274414062	674.4950561523438	-199.9032440185547	-999.6594848632812	743.6077270507812	-182.0230865478516	-1069.262939453125	738.6994018554688	-179.7732391357422	-1113.956909179688	1522.757080078125	-392.6476135253906	-962.2462158203125	1589.145874023438	-506.5333251953125	-990.4409790039062	1584.753051757812	-382.2458801269531	-1092.2900390625	1524.006225585938	-551.1024780273438	-1003.310546875	891.6531982421875	-644.1944580078125	-1078.03125	867.9269409179688	-272.0659484863281	-966.692138671875	910.049072265625	-318.1424255371094	-924.3980102539062	923.1392211914062	-557.7027587890625	-1034.208129882812	472.788818359375	-612.1403198242188	-1002.337829589844	627.90283203125	-627.6243286132812	-1132.734130859375	47.0640869140625	-600.674560546875	-1073.880737304688	330.4908752441406	-619.4408569335938	-938.3267211914062	38.91244125366211	-529.3926391601562	-1016.077270507812	45.12402725219727	-501.6646728515625	-1021.900512695312	42.44507217407227	-603.8323364257812	-1183.2255859375	43.95662307739258	-540.9364624023438	-1091.238525390625	481.8609619140625	-291.8614501953125	-1057.931518554688	740.7640991210938	-262.38916015625	-1143.165405273438	48.81682968139648	-326.1483764648438	-1093.472045898438	341.0440673828125	-305.8125610351562	-940.4345703125	43.60441970825195	-360.9977722167969	-1004.541625976562	49.85756683349609	-399.4401550292969	-1030.106567382812	44.92281341552734	-306.5460510253906	-1192.76318359375	40.26359176635742	-376.7129821777344	
